<?xml version="1.0" encoding="utf-8"?>
<!-- Generator: Adobe Illustrator 27.0.0, SVG Export Plug-In . SVG Version: 6.00 Build 0)  -->
<svg version="1.1" id="Layer_1" xmlns="http://www.w3.org/2000/svg" xmlns:xlink="http://www.w3.org/1999/xlink" x="0px" y="0px"
	 viewBox="0 0 539.9 137.7" style="enable-background:new 0 0 539.9 137.7;" xml:space="preserve">
<style type="text/css">
	.st0{fill:#1E272E;}
	.st1{fill:url(#SVGID_1_);}
	.st2{fill:url(#SVGID_00000072251022443503000330000001713056797608767930_);}
	.st3{fill:url(#SVGID_00000146497796124269555770000007591167934333283208_);}
	.st4{fill:url(#SVGID_00000032631084324605032620000010711784457325261241_);}
</style>
<g>
	<g>
		<path class="st0" d="M254.4,58.8c-4.5,0-7.4,2-7.4,5.1c0,2.9,1.8,4.1,5.8,5.3l6.6,1.9c5.8,1.7,11.6,4.4,11.6,12.5
			c0,7.5-6.4,12.8-16.1,12.8c-9.7,0-15.8-4.4-18-12.4l8-2.2c1.2,5.3,5.1,7.5,9.9,7.5c5.1,0,7.9-2,7.9-5.4c0-2.8-1.4-4.3-5.7-5.5
			l-8.4-2.4c-5.3-1.6-10-4.6-10-11.6c0-7.3,6.8-12.5,15.6-12.5c8.8,0,14.5,4,16.4,11.3l-8,2.1C261.9,61.3,259,58.8,254.4,58.8z"/>
		<path class="st0" d="M278.8,52.4h7.9v43.3h-7.9V52.4z"/>
		<path class="st0" d="M298,52.4h7.9v36h19.6v7.3H298V52.4z"/>
		<path class="st0" d="M331.7,52.4h7.9v16.7h4.9l13.1-16.7h9.5l-16.3,20.2l16.8,23.1h-9.4l-14-19.1h-4.6v19.1h-7.9V52.4z"/>
		<path class="st0" d="M373.2,52.4H390c8.4,0,14.3,5.1,14.3,13c0,5.7-3.3,9.8-8.1,11.4l12,18.8h-9l-11-17.3h-7v17.3h-7.9V52.4z
			 M389.9,71.4c3.9,0,6.5-2.4,6.5-5.9c0-3.6-2.5-5.9-6.5-5.9h-8.8v11.8H389.9z"/>
		<path class="st0" d="M411,74.1c0-12.9,9.1-22.2,21.9-22.2c12.8,0,21.9,9.4,21.9,22.2c0,12.8-9.1,22.2-21.9,22.2
			C420.1,96.3,411,86.9,411,74.1z M432.9,89c8.3,0,13.7-5.9,13.7-15c0-9-5.4-15-13.7-15s-13.7,5.9-13.7,15
			C419.2,83.1,424.6,89,432.9,89z"/>
		<path class="st0" d="M473.1,52.4h8.5l16.5,43.3h-8.4l-4.7-13h-15.7l-4.8,13h-8L473.1,52.4z M482.4,75.8l-5.3-14.4l-5.3,14.4H482.4
			z"/>
		<path class="st0" d="M503.9,52.4h14.4c13,0,21.7,9.2,21.7,21.5c0,12.5-8.7,21.8-21.7,21.8h-14.4V52.4z M518.3,88.5
			c8.1,0,13.5-5.8,13.5-14.4c0-8.6-5.4-14.3-13.5-14.3h-6.5v28.8H518.3z"/>
	</g>
	<g>
		<g>
			<linearGradient id="SVGID_1_" gradientUnits="userSpaceOnUse" x1="123.1546" y1="6.4265" x2="141.5372" y2="139.5799">
				<stop  offset="0" style="stop-color:#2A343B"/>
				<stop  offset="7.957041e-02" style="stop-color:#344048"/>
				<stop  offset="0.2407" style="stop-color:#43535C"/>
				<stop  offset="0.4232" style="stop-color:#4E616B"/>
				<stop  offset="0.6428" style="stop-color:#546973"/>
				<stop  offset="1" style="stop-color:#566B76"/>
			</linearGradient>
			<path class="st1" d="M174,122.1c-4.4,6.5-9.4,15.4-20.5,15.4c-25.8,0-33.1-23.4-41.6-58.6c-8.4-35.2-14.4-49.3-21.5-56.6
				c0,0,14.6-20.5,31.4-8.4c0,0,0,0,0,0c4.3,5.4,7,12.1,9,19c5.8,19.2,12.5,76.2,19.6,88.7C150.6,121.6,157.9,128.2,174,122.1z"/>
		</g>
		<g>
			
				<linearGradient id="SVGID_00000096775043483075617190000006132025248750129842_" gradientUnits="userSpaceOnUse" x1="41.6061" y1="148.829" x2="81.7268" y2="-4.1064">
				<stop  offset="4.884110e-02" style="stop-color:#00C84C"/>
				<stop  offset="0.146" style="stop-color:#11C94A"/>
				<stop  offset="0.3389" style="stop-color:#3ECA43"/>
				<stop  offset="0.6094" style="stop-color:#86CD39"/>
				<stop  offset="0.9441" style="stop-color:#E8D02A"/>
				<stop  offset="0.9974" style="stop-color:#F8D128"/>
			</linearGradient>
			<path style="fill:url(#SVGID_00000096775043483075617190000006132025248750129842_);" d="M121.9,13.9c-9.3-6.6-17.9-3.4-23.7,0.8
				c-4.7,3.4-8.1,8.2-10.7,13.4C69.8,63,65.4,137.3,65.4,137.3L0,137.7c0,0,24.1-118.6,77-135C100.1-4.5,114.1,4.1,121.9,13.9z"/>
		</g>
		<g>
			
				<linearGradient id="SVGID_00000149364366632301066760000014333136171902875065_" gradientUnits="userSpaceOnUse" x1="195.6888" y1="65.6964" x2="201.1719" y2="101.6711">
				<stop  offset="0" style="stop-color:#2A343B"/>
				<stop  offset="7.957041e-02" style="stop-color:#344048"/>
				<stop  offset="0.2407" style="stop-color:#43535C"/>
				<stop  offset="0.4232" style="stop-color:#4E616B"/>
				<stop  offset="0.6428" style="stop-color:#546973"/>
				<stop  offset="1" style="stop-color:#566B76"/>
			</linearGradient>
			<path style="fill:url(#SVGID_00000149364366632301066760000014333136171902875065_);" d="M190.5,101.7c0,0,0.3-19.9-3.4-26.3
				c0,0,4.3-15.3,14.3-8.7c7.1,8.7,9.4,22.8,9.5,35C190.5,101.7,190.5,101.7,190.5,101.7z"/>
		</g>
		<g>
			
				<linearGradient id="SVGID_00000103958980518512208670000005909681820569151155_" gradientUnits="userSpaceOnUse" x1="165.6826" y1="128.9043" x2="186.4662" y2="58.7393">
				<stop  offset="4.884110e-02" style="stop-color:#00C84C"/>
				<stop  offset="0.146" style="stop-color:#11C94A"/>
				<stop  offset="0.3389" style="stop-color:#3ECA43"/>
				<stop  offset="0.6094" style="stop-color:#86CD39"/>
				<stop  offset="0.9441" style="stop-color:#E8D02A"/>
				<stop  offset="0.9974" style="stop-color:#F8D128"/>
			</linearGradient>
			<path style="fill:url(#SVGID_00000103958980518512208670000005909681820569151155_);" d="M201.4,66.7c-7.7-4.4-13.4,4.9-14.3,9
				c-1.8,8.6-4.6,29-11.7,44.1c-2.8,5.8-9.1,9.5-15.4,8.4c-7-1.2-9.4-6.6-9.4-6.6c10.5-18.9,12.3-62.9,34-62.9
				C192.6,58.7,197.2,61.6,201.4,66.7z"/>
		</g>
	</g>
	<g>
		<path class="st0" d="M238.3,112.6h4.5v24.8h-4.5V112.6z"/>
		<path class="st0" d="M249.2,112.6h4.8l11.8,18.2v-18.2h4.3v24.8h-4.8l-11.9-18.3v18.3h-4.3V112.6z"/>
		<path class="st0" d="M276.6,112.6h4.8l11.8,18.2v-18.2h4.3v24.8h-4.8l-11.9-18.3v18.3h-4.3V112.6z"/>
		<path class="st0" d="M302.2,125c0-7.4,5.2-12.7,12.5-12.7c7.3,0,12.5,5.3,12.5,12.7c0,7.3-5.2,12.7-12.5,12.7
			C307.4,137.7,302.2,132.3,302.2,125z M314.7,133.5c4.7,0,7.8-3.4,7.8-8.5c0-5.1-3.1-8.5-7.8-8.5s-7.8,3.4-7.8,8.5
			C306.9,130.1,310,133.5,314.7,133.5z"/>
		<path class="st0" d="M333.5,112.6l6.4,19.7l6.4-19.7h4.7l-8.2,24.8h-5.9l-8.2-24.8H333.5z"/>
		<path class="st0" d="M358.7,112.6h4.9l9.4,24.8h-4.8l-2.7-7.4h-9l-2.7,7.4h-4.6L358.7,112.6z M364,125.9l-3-8.2l-3,8.2H364z"/>
		<path class="st0" d="M378.6,116.8h-7.2v-4.2h18.9v4.2h-7.2v20.6h-4.5V116.8z"/>
		<path class="st0" d="M394.1,112.6h4.5v24.8h-4.5V112.6z"/>
		<path class="st0" d="M403.4,125c0-7.4,5.2-12.7,12.5-12.7c7.3,0,12.5,5.3,12.5,12.7c0,7.3-5.2,12.7-12.5,12.7
			C408.5,137.7,403.4,132.3,403.4,125z M415.9,133.5c4.7,0,7.8-3.4,7.8-8.5c0-5.1-3.1-8.5-7.8-8.5c-4.7,0-7.8,3.4-7.8,8.5
			C408,130.1,411.2,133.5,415.9,133.5z"/>
		<path class="st0" d="M433.1,112.6h4.8l11.8,18.2v-18.2h4.3v24.8h-4.8l-11.9-18.3v18.3h-4.3V112.6z"/>
		<path class="st0" d="M467.7,112.6h4.5v9.6h11.9v-9.6h4.5v24.8h-4.5v-11h-11.9v11h-4.5V112.6z"/>
		<path class="st0" d="M509.6,128.4v-15.8h4.5v15.7c0,5.6-3.9,9.4-9.6,9.4c-5.7,0-9.6-3.8-9.6-9.4v-15.7h4.5v15.8
			c0,3.1,2,5.1,5.1,5.1C507.6,133.5,509.6,131.5,509.6,128.4z"/>
		<path class="st0" d="M520.4,112.6h10c4.4,0,7.3,2.5,7.3,6.4c0,2.4-1.2,4.1-3.2,5.2c2.7,1.1,4.2,3.1,4.2,5.9c0,4.4-3.1,7.2-7.8,7.2
			h-10.6V112.6z M530,122.7c1.9,0,3.2-1.2,3.2-3.2c0-1.8-1.3-3.1-3.2-3.1h-5.1v6.2H530z M530.7,133.5c2.1,0,3.4-1.3,3.4-3.4
			c0-2.1-1.4-3.5-3.4-3.5h-5.9v6.9H530.7z"/>
	</g>
</g>
</svg>
